<svg xmlns="http://www.w3.org/2000/svg"
   width="81"
   height="80"
   viewBox="0 0 81 80">
  <defs
     id="defs72">
    <linearGradient
       id="pluginsdk_80-a"
       x1="-.031%"
       x2="100.053%"
       y1="49.963%"
       y2="49.963%">
      <stop
         offset="25.81%"
         stop-color="#F97A12"
         id="stop2" />
      <stop
         offset="45.91%"
         stop-color="#B07B58"
         id="stop4" />
      <stop
         offset="72.41%"
         stop-color="#577BAE"
         id="stop6" />
      <stop
         offset="91.05%"
         stop-color="#1E7CE5"
         id="stop8" />
      <stop
         offset="100%"
         stop-color="#087CFA"
         id="stop10" />
    </linearGradient>
    <linearGradient
       id="pluginsdk_80-b"
       x1="27.55%"
       x2="82.223%"
       y1="34.514%"
       y2="77.605%">
      <stop
         offset="0%"
         stop-color="#F97A12"
         id="stop13" />
      <stop
         offset="7.18%"
         stop-color="#CB7A3E"
         id="stop15" />
      <stop
         offset="15.41%"
         stop-color="#9E7B6A"
         id="stop17" />
      <stop
         offset="24.2%"
         stop-color="#757B91"
         id="stop19" />
      <stop
         offset="33.44%"
         stop-color="#537BB1"
         id="stop21" />
      <stop
         offset="43.24%"
         stop-color="#387CCC"
         id="stop23" />
      <stop
         offset="53.81%"
         stop-color="#237CE0"
         id="stop25" />
      <stop
         offset="65.52%"
         stop-color="#147CEF"
         id="stop27" />
      <stop
         offset="79.25%"
         stop-color="#0B7CF7"
         id="stop29" />
      <stop
         offset="100%"
         stop-color="#087CFA"
         id="stop31" />
    </linearGradient>
    <linearGradient
       id="pluginsdk_80-c"
       x1="63.121%"
       x2="40.793%"
       y1="97.699%"
       y2="-6.587%">
      <stop
         offset="0%"
         stop-color="#FE315D"
         id="stop34" />
      <stop
         offset="7.84%"
         stop-color="#CB417E"
         id="stop36" />
      <stop
         offset="16.01%"
         stop-color="#9E4E9B"
         id="stop38" />
      <stop
         offset="24.74%"
         stop-color="#755BB4"
         id="stop40" />
      <stop
         offset="33.92%"
         stop-color="#5365CA"
         id="stop42" />
      <stop
         offset="43.65%"
         stop-color="#386DDB"
         id="stop44" />
      <stop
         offset="54.14%"
         stop-color="#2374E9"
         id="stop46" />
      <stop
         offset="65.76%"
         stop-color="#1478F3"
         id="stop48" />
      <stop
         offset="79.4%"
         stop-color="#0B7BF8"
         id="stop50" />
      <stop
         offset="100%"
         stop-color="#087CFA"
         id="stop52" />
    </linearGradient>
    <linearGradient
       id="pluginsdk_80-d"
       x1="25.331%"
       x2="93.854%"
       y1="24.119%"
       y2="132.621%">
      <stop
         offset="0%"
         stop-color="#FE315D"
         id="stop55" />
      <stop
         offset="4.023%"
         stop-color="#F63462"
         id="stop57" />
      <stop
         offset="10.37%"
         stop-color="#DF3A71"
         id="stop59" />
      <stop
         offset="16.67%"
         stop-color="#C24383"
         id="stop61" />
      <stop
         offset="29.12%"
         stop-color="#AD4A91"
         id="stop63" />
      <stop
         offset="54.98%"
         stop-color="#755BB4"
         id="stop65" />
      <stop
         offset="91.75%"
         stop-color="#1D76ED"
         id="stop67" />
      <stop
         offset="100%"
         stop-color="#087CFA"
         id="stop69" />
    </linearGradient>
  </defs>
  <g
     fill="none"
     fill-rule="evenodd"
     id="g92">
    <g
       transform="translate(8 8)"
       id="g82">
      <path
         fill="url(#pluginsdk_80-a)"
         d="M6.08754566,64 L2.66453526e-15,59.1000946 L0,26.7918961 L30,38.6703369 L10.1403967,64 L6.08754566,64 Z"
         id="path74" />
      <path
         fill="url(#pluginsdk_80-b)"
         d="M20.9524706,64 L52.2740919,31.9159091 L37.6708832,0.460194805 L38.0580944,1.33226763e-15 L64,0 L64,64 L20.9524706,64 Z"
         id="path76" />
      <path
         fill="url(#pluginsdk_80-c)"
         d="M34.4123783,0 L64,0 L64,28.0366227 L49.0078336,44 L34,0.44696173 L34.4123783,0 Z"
         id="path78" />
      <path
         fill="url(#pluginsdk_80-d)"
         d="M30.3358775,64 L0,64 L0,49.9709549 L6.23437817,29.2830519 L0,27.1596093 L0,0 L39.4697238,0 L58,21.3844805 L30.5381317,63.9259091 L30.3358775,64 Z"
         id="path80" />
    </g>
    <g
       transform="translate(12 12)"
       id="g90">
      <rect
         width="56"
         height="56"
         fill="#000"
         id="rect84" />
      <path
         d="m 50.528711,19.862172 -7.215142,7.231 c -2.685198,2.690481 -6.485702,3.557357 -9.900341,2.627053 l 6.020549,-6.020549 c 0.08985,-0.07928 0.185002,-0.13743 0.269577,-0.222005 l 7.215144,-7.231 c 1.992752,-1.998039 1.992752,-5.232961 0,-7.231 -1.992755,-1.9980392 -5.22239,-1.9980392 -7.215144,0 l -7.204573,7.231 c 0,0 0,0 0,0 l -0.0053,-0.0053 -6.237267,6.237269 c -0.898591,-3.40407 -0.02644,-7.183428 2.637623,-9.852768 l 7.209857,-7.2257137 c 3.98551,-3.9960817 10.439494,-3.9960817 14.425001,0 3.980222,3.9960783 3.980222,10.4659207 0,14.4620007 z m -29.664019,18.981375 -0.01056,-0.0053 c -0.470438,0.475725 -1.120593,0.771729 -1.84475,0.771729 -1.432456,0 -2.590051,-1.157595 -2.590051,-2.590051 0,-0.750585 0.322434,-1.421884 0.83516,-1.892324 l 17.14191,-17.147226 c 0.470438,-0.507437 1.141739,-0.83516 1.892324,-0.83516 1.432457,0 2.590052,1.162882 2.590052,2.590054 0,0.708298 -0.285436,1.347881 -0.745301,1.818322 l 0.01056,0.0053 z m -5.343963,-5.639967 -7.2151433,7.231 c -1.9927525,1.998039 -1.9927525,5.232961 0,7.231001 1.9927543,1.998039 5.2223923,1.998039 7.2098593,0 l 7.215143,-7.231001 c 0.05285,-0.05285 0.08457,-0.111002 0.132144,-0.163861 l 6.105123,-6.105121 c 0.90916,3.41464 0.04228,7.204573 -2.632337,9.884482 l -7.209861,7.231001 c -3.985506,3.99608 -10.4447775,3.99608 -14.4249999,0 -3.98021981,-3.990792 -3.98021981,-10.465922 0,-14.462002 l 7.2151439,-7.231 c 2.674626,-2.679909 6.459272,-3.552072 9.863339,-2.637626 l -6.205552,6.21084 c -0.02116,0.01587 -0.037,0.02644 -0.05285,0.04229 z"
         id="path4"
         style="fill:#00ffff;stroke-width:0.0528581" />
    </g>
  </g>
</svg>
